<?xml version="1.0" standalone="no"?>
<!DOCTYPE svg PUBLIC "-//W3C//DTD SVG 20010904//EN"
 "http://www.w3.org/TR/2001/REC-SVG-20010904/DTD/svg10.dtd">
<svg version="1.0" xmlns="http://www.w3.org/2000/svg"
 width="512.000000pt" height="512.000000pt" viewBox="0 0 512.000000 512.000000"
 preserveAspectRatio="xMidYMid meet">

<g transform="translate(0.000000,512.000000) scale(0.100000,-0.100000)"
fill="#c0f6fe" stroke="none">
<path d="M3626 5059 c-107 -25 -219 -105 -313 -222 -15 -20 -31 -27 -55 -27
-129 -1 -302 -120 -342 -236 -49 -143 20 -301 164 -374 22 -11 40 -26 40 -32
0 -7 -9 -105 -20 -218 -18 -180 -24 -213 -50 -270 -79 -175 -87 -385 -23 -564
41 -114 92 -195 186 -292 l49 -51 -123 -49 -122 -49 -140 -175 c-77 -96 -146
-181 -153 -189 -11 -12 -40 7 -184 123 -135 108 -179 149 -206 194 -20 31 -53
82 -73 113 l-38 56 -5 144 c-4 94 -11 157 -21 180 -20 49 -73 106 -119 130
l-38 19 0 174 0 173 78 7 c97 9 146 31 198 88 67 73 69 85 69 428 0 288 -1
307 -21 350 -26 58 -76 108 -134 134 -41 19 -63 21 -271 21 l-225 0 -60 -30
c-71 -37 -117 -98 -134 -181 -8 -36 -10 -149 -8 -332 3 -256 5 -280 24 -322
44 -95 119 -144 242 -156 l72 -7 0 -178 c0 -146 -3 -179 -14 -179 -25 0 -113
-89 -132 -132 -17 -41 -32 -274 -37 -573 -2 -134 46 -203 213 -306 68 -41 187
-137 390 -315 184 -161 310 -264 339 -277 60 -26 143 -26 202 1 24 11 100 67
169 125 69 58 126 104 128 103 2 -3 -121 -1181 -134 -1278 l-6 -48 -744 0
-744 0 49 98 c48 93 53 99 112 132 76 43 132 105 173 190 30 62 31 71 34 212
l4 148 34 16 c41 20 101 84 120 130 20 48 18 150 -5 199 -23 50 -83 108 -136
132 -37 17 -94 18 -820 21 -532 2 -800 -1 -843 -8 -104 -18 -173 -75 -207
-169 -39 -112 7 -236 110 -297 l45 -26 0 -108 c0 -126 12 -195 47 -264 34 -67
113 -148 177 -182 50 -26 56 -34 100 -121 25 -51 46 -95 46 -98 0 -2 -111 -5
-246 -7 l-246 -3 -24 -28 c-24 -28 -24 -32 -24 -218 0 -192 4 -219 39 -246 13
-10 567 -12 2519 -13 l2503 0 24 26 c25 27 25 29 25 225 0 195 0 198 -24 226
l-24 28 -278 5 -278 5 -57 539 c-31 297 -60 565 -63 595 l-6 56 70 -105 c64
-96 71 -113 89 -202 26 -123 40 -156 90 -211 134 -145 365 -110 459 68 22 41
27 63 26 125 0 67 -5 85 -40 160 -65 136 -574 1064 -591 1077 -9 7 -69 33
-134 59 l-118 47 58 58 c145 144 221 328 221 530 0 118 -20 222 -61 308 -26
57 -32 87 -49 260 -11 108 -20 207 -20 221 0 21 13 34 64 68 78 51 131 125
148 204 38 180 -118 356 -341 388 -47 6 -58 12 -85 46 -78 101 -179 170 -291
199 -64 16 -187 18 -249 4z m246 -183 c79 -32 128 -74 168 -144 19 -33 43 -65
52 -71 9 -6 52 -13 94 -16 264 -19 332 -233 102 -317 -97 -35 -96 -30 -69
-307 12 -130 25 -253 28 -273 l6 -38 -502 0 -501 0 0 23 c0 12 11 134 25 271
30 293 34 276 -82 333 -89 44 -123 83 -123 144 0 30 8 48 35 78 47 51 115 79
217 88 l82 8 49 73 c76 116 172 171 297 171 46 0 82 -6 122 -23z m-2002 -736
l0 -340 -58 0 c-50 0 -62 4 -83 26 -24 26 -24 26 -27 287 -4 298 1 331 51 352
18 8 51 14 75 15 l42 0 0 -340z m315 310 l25 -23 0 -291 c0 -284 0 -290 -22
-313 -18 -19 -32 -23 -85 -23 l-63 0 0 333 c0 184 3 337 8 341 4 4 31 6 60 4
37 -3 59 -11 77 -28z m2144 -954 c16 -63 14 -201 -4 -271 -27 -106 -73 -183
-160 -271 -122 -123 -250 -177 -419 -176 -308 1 -557 229 -591 542 -5 51 8
191 21 211 3 5 255 9 573 9 l569 0 11 -44z m-2312 -408 c21 -19 23 -30 23
-113 l0 -92 -67 -6 c-38 -2 -76 -8 -87 -12 -17 -8 -18 -3 -14 93 3 90 6 104
28 127 30 32 84 34 117 3z m67 -401 c14 -9 44 -49 67 -88 l42 -71 -80 -80 -81
-81 -58 36 c-118 71 -150 140 -106 227 27 55 77 83 139 78 28 -3 63 -12 77
-21z m1472 -58 c109 -29 278 -29 388 0 44 12 80 20 81 19 1 -2 28 -106 61
-233 l60 -230 -394 -3 c-217 -1 -397 -1 -399 1 -2 2 24 106 57 232 33 125 60
229 60 231 0 6 0 6 86 -17z m-280 -56 c-3 -10 -30 -111 -60 -225 -48 -182 -58
-211 -83 -232 -251 -211 -369 -305 -388 -308 -13 -3 -34 0 -48 6 -14 6 -138
110 -276 231 l-251 220 69 69 68 68 189 -151 c104 -83 200 -154 213 -158 14
-3 36 0 50 8 14 8 100 107 191 221 l165 206 70 30 c83 36 98 38 91 15z m1040
-17 l55 -23 220 -403 c128 -237 215 -406 209 -410 -25 -15 -163 -42 -169 -32
-3 5 -71 107 -150 225 l-144 216 -58 223 c-33 123 -59 227 -59 231 0 10 18 4
96 -27z m-131 -578 c7 -46 145 -1368 145 -1395 l0 -23 -585 0 -586 0 5 33 c3
17 37 338 76 712 39 374 73 686 75 693 3 9 99 12 434 12 l430 0 6 -32z m-2341
-337 c33 -31 35 -85 4 -118 l-21 -23 -804 0 c-786 0 -803 0 -823 20 -26 26
-33 60 -21 93 22 58 4 57 858 54 l781 -2 26 -24z m3074 -118 c28 -56 34 -91
22 -129 -16 -48 -54 -74 -106 -74 -66 0 -99 33 -119 122 -9 39 -14 72 -13 74
6 6 154 42 175 43 16 1 28 -9 41 -36z m-3218 -316 c0 -102 -3 -118 -26 -165
-14 -29 -42 -65 -62 -82 -72 -59 -80 -60 -596 -60 l-471 0 -50 24 c-59 27 -99
65 -128 121 -17 32 -22 63 -25 158 l-4 117 681 0 681 0 0 -113z m-760 -562 l0
-85 -103 0 -103 0 -42 85 -42 85 145 0 145 0 0 -85z m450 80 c0 -3 -18 -41
-40 -85 l-40 -80 -100 0 -100 0 0 85 0 85 140 0 c77 0 140 -2 140 -5z m3550
-420 l0 -85 -2385 0 -2385 0 0 85 0 85 2385 0 2385 0 0 -85z"/>
<path d="M3473 1663 c-13 -2 -32 -16 -43 -30 -18 -24 -20 -40 -20 -199 0 -204
12 -251 87 -334 100 -112 257 -144 397 -81 61 26 132 100 164 169 24 53 27 69
30 225 3 122 1 176 -9 198 -22 55 -49 59 -331 58 -139 -1 -263 -4 -275 -6z
m445 -268 c2 -88 0 -105 -20 -144 -27 -54 -62 -81 -114 -90 -72 -13 -133 12
-178 73 -18 23 -21 45 -24 147 l-4 119 169 -2 168 -3 3 -100z"/>
<path d="M940 2775 l0 -85 85 0 85 0 0 85 0 85 -85 0 -85 0 0 -85z"/>
<path d="M510 2605 l0 -85 85 0 85 0 0 85 0 85 -85 0 -85 0 0 -85z"/>
<path d="M1360 2605 l0 -85 85 0 85 0 0 85 0 85 -85 0 -85 0 0 -85z"/>
<path d="M940 2305 l0 -215 85 0 85 0 0 215 0 215 -85 0 -85 0 0 -215z"/>
<path d="M510 2180 l0 -170 85 0 85 0 0 170 0 170 -85 0 -85 0 0 -170z"/>
<path d="M1367 2343 c-4 -3 -7 -80 -7 -170 l0 -163 85 0 85 0 0 170 0 170 -78
0 c-43 0 -82 -3 -85 -7z"/>
</g>
</svg>
