<?xml version="1.0" standalone="no"?>
<!DOCTYPE svg PUBLIC "-//W3C//DTD SVG 20010904//EN"
 "http://www.w3.org/TR/2001/REC-SVG-20010904/DTD/svg10.dtd">
<svg version="1.0" xmlns="http://www.w3.org/2000/svg"
 width="512.000000pt" height="512.000000pt" viewBox="0 0 512.000000 512.000000"
 preserveAspectRatio="xMidYMid meet">

<g transform="translate(0.000000,512.000000) scale(0.100000,-0.100000)"
fill="#6ceafd" stroke="none">
<path d="M4494 5052 c-117 -87 -475 -381 -934 -769 -377 -319 -427 -370 -490
-493 -91 -180 -104 -406 -30 -549 l19 -39 -264 -247 c-175 -162 -269 -244
-277 -239 -14 9 -558 515 -558 519 0 2 20 40 44 86 76 144 91 209 90 389 -1
139 -3 164 -28 244 -83 273 -239 463 -541 662 -397 261 -828 389 -1108 329
-172 -36 -276 -141 -313 -314 -65 -307 102 -805 408 -1220 164 -221 347 -355
583 -427 82 -25 105 -28 250 -28 155 0 163 1 255 32 52 18 120 48 152 67 31
19 58 35 61 35 8 0 517 -551 517 -559 0 -4 -440 -417 -977 -917 -1297 -1207
-1300 -1209 -1326 -1258 -17 -32 -22 -58 -22 -117 0 -67 3 -81 30 -125 19 -30
49 -60 79 -79 44 -27 58 -30 125 -30 100 1 133 19 241 132 47 48 526 562 1064
1141 l980 1053 37 -38 c20 -21 491 -527 1046 -1124 556 -597 1024 -1095 1039
-1106 98 -68 233 -57 315 26 89 88 94 234 12 330 -18 22 -535 506 -1148 1077
l-1115 1037 63 66 c34 36 145 155 246 263 l183 197 50 -25 c74 -38 179 -57
266 -49 186 16 359 107 498 262 175 196 892 1058 1027 1236 68 90 77 107 55
107 -7 0 -274 -263 -594 -585 -319 -322 -585 -585 -590 -585 -6 0 -25 16 -44
35 l-34 35 21 22 c694 776 1049 1183 1074 1229 45 84 -92 -38 -825 -736 -213
-203 -392 -372 -398 -374 -10 -3 -78 57 -78 71 0 4 177 193 393 421 678 714
771 817 738 817 -24 0 -176 -130 -821 -704 -228 -203 -423 -376 -433 -384 -16
-14 -21 -12 -52 18 -19 19 -35 39 -35 45 0 5 229 236 508 511 516 509 667 665
660 683 -1 6 -44 -20 -94 -57z"/>
</g>
</svg>
