<svg xmlns="http://www.w3.org/2000/svg" version="1.0" preserveAspectRatio="xMidYMid meet" viewBox="50.19 175 360.89 120">

<g transform="translate(0.000000,500.000000) scale(0.100000,-0.100000)" fill="#6ceafd" stroke="none">
<path d="M1414 3117 c-192 -160 -207 -180 -202 -262 l3 -60 -57 -54 -57 -53 -28 20 c-15 11 -45 38 -66 60 l-39 40 17 48 c21 62 14 113 -25 180 -51 90 -206 175 -322 178 -50 1 -61 -3 -84 -25 -55 -55 -34 -185 48 -309 77 -115 175 -160 278 -126 28 9 55 14 59 11 5 -3 32 -32 60 -64 l51 -59 -270 -252 c-151 -141 -273 -262 -276 -275 -9 -38 12 -65 51 -65 31 0 52 19 286 270 138 149 255 269 259 268 4 -2 116 -120 249 -263 132 -143 252 -264 266 -270 45 -16 87 25 70 68 -6 14 -130 136 -278 273 l-267 247 52 57 53 57 55 -4 c40 -3 65 1 90 14 34 17 173 172 274 304 40 52 22 38 -96 -80 -95 -93 -148 -139 -153 -131 -4 7 3 23 17 38 34 38 188 212 213 241 47 55 -23 -2 -145 -118 -172 -164 -178 -139 -10 39 73 77 131 142 129 144 -2 3 -69 -53 -149 -124 -197 -174 -211 -157 -25 30 77 77 137 140 133 140 -3 0 -77 -60 -164 -133z"/>
<path d="M3638 2993 c-49 -54 -70 -92 -187 -334 -30 -62 -52 -94 -78 -112 -60 -42 -66 -16 -21 80 23 49 16 67 -23 61 -18 -2 -28 -16 -45 -61 -23 -59 -111 -180 -145 -198 -25 -13 -25 -11 17 93 19 49 33 96 30 104 -3 8 -19 14 -40 14 -43 0 -53 14 -32 44 17 27 12 36 -19 36 -29 0 -46 -21 -48 -58 -2 -24 -16 -41 -74 -86 -40 -32 -73 -55 -73 -51 0 3 13 32 30 65 27 53 28 60 14 74 -29 29 -44 17 -112 -84 -27 -41 -62 -86 -76 -99 l-26 -24 0 27 c0 37 56 140 101 188 27 28 44 38 67 38 25 0 32 4 32 20 0 10 -9 24 -19 30 -36 19 -80 0 -134 -59 -96 -104 -166 -171 -178 -171 -20 0 2 82 37 132 35 52 35 89 0 96 -19 4 -73 -50 -118 -120 -17 -27 -33 -46 -35 -44 -10 9 11 80 34 113 28 41 24 63 -10 63 -21 0 -27 -10 -53 -87 -19 -60 -39 -99 -61 -123 -29 -30 -33 -32 -33 -14 0 12 9 46 19 77 16 47 17 58 6 67 -20 17 -48 -2 -86 -56 -40 -59 -89 -114 -100 -114 -18 0 -7 47 31 125 36 75 37 81 20 89 -29 13 -45 2 -78 -56 -39 -68 -59 -156 -43 -186 20 -38 54 -27 113 36 l54 58 -4 -33 c-8 -67 44 -83 102 -33 20 18 37 26 41 20 13 -21 42 -9 63 28 12 20 35 53 52 72 30 35 30 35 16 5 -26 -57 -28 -110 -5 -139 24 -31 48 -33 80 -7 l24 19 20 -41 c33 -70 58 -63 132 37 47 64 50 63 28 -7 -11 -37 -30 -63 -78 -110 -120 -116 -154 -200 -102 -252 46 -47 83 -29 129 63 18 37 48 112 65 167 l31 100 83 68 c65 52 92 67 117 67 22 0 30 -4 27 -12 -60 -136 -66 -163 -47 -199 24 -44 99 -5 168 88 36 48 39 50 50 32 7 -11 24 -25 37 -31 22 -10 29 -8 55 17 17 16 30 27 30 24 0 -2 -7 -29 -15 -59 -22 -83 -20 -175 5 -200 11 -11 27 -20 36 -20 53 0 85 55 118 202 5 20 17 32 44 43 20 9 47 26 60 38 l24 22 -7 -35 c-5 -27 -2 -42 12 -59 18 -22 22 -23 58 -11 22 7 64 38 99 71 33 33 61 59 62 59 1 0 -7 -28 -17 -62 -17 -53 -31 -75 -93 -138 -135 -139 -166 -192 -141 -239 16 -33 33 -41 80 -41 26 0 39 7 55 30 31 44 74 143 105 244 l28 88 91 76 c81 67 112 102 90 102 -4 0 -41 -28 -81 -61 -41 -34 -76 -59 -79 -57 -2 3 9 30 26 61 35 67 36 73 11 87 -21 11 -51 4 -51 -12 0 -24 -157 -178 -181 -178 -19 0 -7 69 26 144 35 82 36 96 6 96 -21 0 -42 -22 -66 -70 -32 -65 -120 -140 -145 -125 -6 3 -10 19 -10 35 0 16 -4 31 -9 35 -18 10 -26 -20 -26 -95 0 -65 -5 -85 -33 -142 -29 -59 -56 -87 -70 -73 -11 11 -1 86 23 171 29 99 25 92 113 198 126 151 192 290 163 344 -16 30 -52 28 -83 -5z m50 -61 c-6 -20 -24 -64 -40 -96 -42 -83 -128 -198 -128 -171 0 14 119 256 140 285 28 39 41 30 28 -18z m-897 -593 c-41 -119 -86 -190 -110 -174 -16 9 -13 51 4 85 18 35 115 153 121 147 2 -2 -4 -28 -15 -58z m1024 -34 c-31 -84 -73 -162 -91 -169 -21 -8 -36 20 -29 54 9 41 130 199 142 186 2 -2 -8 -34 -22 -71z"/>
<path d="M1907 2943 c-19 -38 -49 -108 -68 -156 -25 -65 -40 -91 -56 -98 -25 -9 -30 -25 -11 -31 9 -3 3 -34 -20 -112 -31 -102 -32 -109 -17 -133 31 -46 41 -31 88 127 37 127 26 116 138 133 l36 5 -49 -130 c-59 -156 -66 -189 -44 -207 9 -7 21 -11 28 -8 7 2 39 76 71 163 70 191 78 204 117 204 16 0 32 5 35 10 4 6 -7 10 -24 10 -17 0 -31 3 -31 8 0 4 23 52 50 107 28 55 50 107 50 116 0 19 -31 49 -51 49 -9 0 -37 -54 -73 -139 l-59 -139 -45 -6 c-24 -3 -55 -6 -68 -6 l-22 0 23 63 c13 34 39 96 58 138 26 57 32 80 24 88 -26 26 -47 11 -80 -56z"/>
<path d="M3369 2858 c-1 -7 -1 -17 0 -22 1 -4 -8 -28 -20 -53 -26 -53 -15 -74 21 -43 13 11 25 28 26 36 1 9 11 25 20 35 14 15 16 24 8 37 -14 21 -54 28 -55 10z"/>
</g>
</svg>